<svg version="1.1"
 xmlns="http://www.w3.org/2000/svg" x="0px" y="0px" viewBox="0 0 7000 6000"
 style="enable-background:new 0 0 7000 6000;" xml:space="preserve" id="gk2">
    <style type="text/css">

    </style>
    <g>
        <g id="Floor">
            <rect x="1011" y="4804.5" class="st1" width="2382" height="679.5"/>
            <rect x="3392.8" y="4652.4" class="st1" width="510.2" height="831.6"/>
            <rect x="3903" y="4813" class="st1" width="382" height="670.5"/>
            <rect x="4285" y="4846" class="st1" width="111.5" height="638"/>
            <rect x="4396" y="4882" class="st1" width="1156.3" height="602"/>
            <rect x="5552.3" y="4847.1" class="st1" width="115.7" height="636.9"/>
            <rect x="5667.7" y="4438" class="st1" width="551.3" height="1045.5"/>
            <rect x="2987.1" y="1725.2" class="st1" width="540.9" height="209.8"/>
            <rect x="2987.1" y="1935" class="st1" width="508.9" height="1268.5"/>
            <rect x="3342" y="3203" class="st1" width="90" height="121"/>
            <rect x="3220" y="3324.5" class="st1" width="375" height="971.5"/>
            <rect x="3260" y="4296" class="st1" width="335" height="224.5"/>
            <rect x="3563" y="4374" class="st1" width="122" height="278"/>
        </g>
        <g id="Rooms">
            <rect x="3392.8" y="4652.4" class="st2" width="510.2" height="186.1"/>
            <rect x="4285" y="4846" class="st2" width="111" height="289"/>
            <rect x="5552.3" y="4847.1" class="st2" width="115.7" height="287.9"/>
            <rect x="2259" y="4804" class="st2" width="122" height="292"/>
            <rect x="1011" y="4804.5" class="st2" width="148" height="291.5"/>
            <rect x="5315" y="4882" class="st2" width="131" height="253"/>
            <rect x="5446" y="4882" class="st2" width="106" height="253"/>
            <rect x="1159" y="4804" class="st2" width="115" height="292"/>
            <rect x="3260" y="4386" class="st2" width="189" height="134"/>
            <rect x="3500" y="4296" class="st2" width="95" height="78"/>
            <rect x="3903" y="4813" class="st3" width="104" height="322"/>
            <rect x="4007" y="4813" class="st3" width="126" height="322"/>
            <rect x="4133" y="4813" class="st3" width="152" height="322"/>
            <rect x="4396" y="4882" class="st3" width="480" height="253"/>
            <rect x="4876" y="4882" class="st3" width="102" height="253"/>
            <rect x="4978" y="4882" class="st3" width="105" height="253"/>
            <rect x="5083" y="4882" class="st3" width="135" height="253"/>
            <rect x="5218" y="4882" class="st3" width="97" height="253"/>
            <rect x="3261" y="4804" class="st3" width="132" height="292"/>
            <rect x="3154" y="4804" class="st3" width="107" height="292"/>
            <rect x="3042" y="4804" class="st3" width="112" height="292"/>
            <rect x="2884" y="4804" class="st3" width="158" height="292"/>
            <rect x="2731" y="4804" class="st3" width="153" height="292"/>
            <rect x="2554" y="4804" class="st3" width="177" height="292"/>
            <rect x="2381" y="4804" class="st3" width="173" height="292"/>
            <rect x="2135" y="4804" class="st3" width="124" height="292"/>
            <rect x="2028" y="4804" class="st3" width="107" height="292"/>
            <rect x="1925" y="4804" class="st3" width="103" height="292"/>
            <rect x="1762" y="4804" class="st3" width="163" height="292"/>
            <rect x="1526" y="4804" class="st3" width="236" height="292"/>
            <rect x="1362" y="4804" class="st3" width="164" height="292"/>
            <rect x="1274" y="4804" class="st3" width="88" height="292"/>
            <rect x="1011" y="5181" class="st3" width="515" height="302.5"/>
            <rect x="1526" y="5181" class="st3" width="236" height="303"/>
            <rect x="1762" y="5181" class="st3" width="163" height="303"/>
            <rect x="1925" y="5181" class="st3" width="161" height="303"/>
            <rect x="2086" y="5181" class="st3" width="173" height="303"/>
            <rect x="2259" y="5181" class="st3" width="122" height="303"/>
            <rect x="2381" y="5181" class="st3" width="345" height="303"/>
            <rect x="2726" y="5181" class="st3" width="158" height="303"/>
            <rect x="2884" y="5181" class="st3" width="176" height="303"/>
            <rect x="3060" y="5181" class="st3" width="333" height="303"/>
            <rect x="3903" y="5232" class="st3" width="230" height="252"/>
            <rect x="4133" y="5232" class="st3" width="145" height="252"/>
            <rect x="4278" y="5232" class="st3" width="183" height="252"/>
            <rect x="4461" y="5232" class="st3" width="173" height="252"/>
            <rect x="4634" y="5232" class="st3" width="141" height="252"/>
            <rect x="4775" y="5232" class="st3" width="88" height="252"/>
            <rect x="4863" y="5232" class="st3" width="100" height="252"/>
            <rect x="4963" y="5232" class="st3" width="236" height="252"/>
            <rect x="5199" y="5232" class="st3" width="469" height="252"/>
            <rect x="5668" y="5232" class="st3" width="392" height="252"/>
            <rect x="6060" y="5232" class="st3" width="159" height="251.5"/>
            <rect x="5790" y="4932" class="st3" width="427" height="143"/>
            <rect x="5790" y="4438" class="st3" width="427" height="494"/>
            <rect x="5667.7" y="4438" class="st2" width="122.3" height="697"/>
            <rect x="5790" y="5075" class="st2" width="425" height="157"/>
            <rect x="3393" y="5232" class="st2" width="510" height="252"/>
            <rect x="3260" y="4296" class="st2" width="112.6" height="90"/>
            <rect x="3432" y="3979" class="st3" width="163" height="317"/>
            <rect x="3220" y="4156" class="st3" width="144" height="140"/>
            <rect x="3220" y="3979" class="st3" width="144" height="177"/>
            <rect x="3432" y="3796" class="st3" width="163" height="183"/>
            <rect x="3220" y="3796" class="st3" width="144" height="183"/>
            <rect x="3432" y="3609" class="st3" width="163" height="187"/>
            <rect x="3220" y="3609" class="st3" width="142" height="187"/>
            <rect x="3432" y="3324" class="st3" width="163" height="285"/>
            <rect x="3220" y="3509" class="st3" width="144" height="100"/>
            <rect x="3220" y="3324.5" class="st3" width="122" height="184.5"/>
            <rect x="2987" y="3045" class="st3" width="218" height="158"/>
            <rect x="2987" y="2865" class="st3" width="169" height="180"/>
            <rect x="3270" y="2865" class="st3" width="226" height="119"/>
            <rect x="3270" y="2697" class="st3" width="226" height="168"/>
            <rect x="3270" y="2559" class="st3" width="226" height="138"/>
            <rect x="3270" y="2258" class="st3" width="226" height="301"/>
            <rect x="3270" y="2132" class="st3" width="226" height="126"/>
            <rect x="3270" y="1935" class="st3" width="226" height="197"/>
            <rect x="2987.1" y="1725.2" class="st3" width="540.9" height="209.8"/>
            <rect x="2987" y="2082" class="st3" width="219" height="179"/>
            <rect x="2987" y="2261" class="st3" width="219" height="298"/>
            <rect x="2987" y="2559" class="st3" width="219" height="306"/>
            <rect x="3205" y="3045" class="st2" width="137" height="158"/>
            <rect x="3156" y="2865" class="st2" width="49" height="180"/>
        </g>
        <g id="Walls">
            <line class="st4" x1="1011" y1="5483.5" x2="6219" y2="5483.5"/>
            <line class="st4" x1="1011" y1="5483.5" x2="1011" y2="4804.5"/>
            <line class="st4" x1="1011" y1="4804.5" x2="3392.8" y2="4804.5"/>
            <line class="st4" x1="3392.8" y1="4804.5" x2="3392.8" y2="4652.4"/>
            <line class="st4" x1="3392.8" y1="4652.4" x2="3563.1" y2="4652.4"/>
            <line class="st4" x1="3902.8" y1="4652.4" x2="3902.8" y2="4813.5"/>
            <line class="st4" x1="3902.8" y1="4813.5" x2="4285" y2="4813.5"/>
            <line class="st4" x1="4285" y1="4813.5" x2="4285" y2="4846.5"/>
            <line class="st4" x1="4285" y1="4846.5" x2="4396.5" y2="4846.5"/>
            <line class="st4" x1="4396.5" y1="4846.5" x2="4396.5" y2="4882.5"/>
            <line class="st4" x1="4396.5" y1="4882.5" x2="5552.3" y2="4882.5"/>
            <line class="st4" x1="5552.3" y1="4882.5" x2="5552.3" y2="4847.1"/>
            <line class="st4" x1="5552.3" y1="4847.1" x2="5667.7" y2="4847.1"/>
            <line class="st4" x1="5667.7" y1="4847.1" x2="5667.7" y2="4438"/>
            <line class="st4" x1="5667.7" y1="4438" x2="6215" y2="4438"/>
            <line class="st4" x1="6215" y1="4438" x2="6219" y2="5483.5"/>
            <line class="st4" x1="3685" y1="4652" x2="3685" y2="4374"/>
            <line class="st4" x1="3595" y1="4374" x2="3595" y2="3324.5"/>
            <line class="st4" x1="3342" y1="3324.5" x2="3220" y2="3324.5"/>
            <line class="st4" x1="3220" y1="3324.5" x2="3220" y2="4296"/>
            <line class="st4" x1="3260" y1="4296" x2="3260" y2="4520.5"/>
            <line class="st4" x1="3260" y1="4520.5" x2="3563.1" y2="4520.5"/>
            <line class="st4" x1="3220" y1="4296" x2="3378" y2="4296"/>
            <line class="st4" x1="3496" y1="3203.5" x2="3496" y2="1935.1"/>
            <line class="st4" x1="2987.1" y1="1725.2" x2="2987.1" y2="3203.5"/>
            <line class="st4" x1="2987.1" y1="3203.5" x2="3342" y2="3203.5"/>
            <line class="st4" x1="3903" y1="4652" x2="3685" y2="4652"/>
            <line class="st4" x1="3500" y1="4374" x2="3685" y2="4374"/>
            <line class="st4" x1="3563" y1="4520" x2="3563" y2="4652"/>
            <line class="st4" x1="3260" y1="4386" x2="3449" y2="4386"/>
            <line class="st4" x1="3417" y1="4296" x2="3595" y2="4296"/>
            <line class="st4" x1="3500" y1="4296" x2="3500" y2="4327"/>
            <line class="st4" x1="3500" y1="4365" x2="3500" y2="4442"/>
            <line class="st4" x1="3500" y1="4520" x2="3500" y2="4488"/>
            <line class="st4" x1="3563" y1="4520" x2="3563.1" y2="4451"/>
            <line class="st4" x1="3393" y1="4804" x2="3393" y2="5096"/>
            <line class="st4" x1="3325" y1="5096" x2="3393" y2="5096"/>
            <line class="st4" x1="3261" y1="4804" x2="3261" y2="5096"/>
            <line class="st4" x1="3154" y1="4804" x2="3154" y2="5096"/>
            <line class="st4" x1="3000" y1="5096" x2="3210" y2="5096"/>
            <line class="st4" x1="3042" y1="4804" x2="3042" y2="5016"/>
            <line class="st4" x1="3042" y1="5096" x2="3042" y2="5052"/>
            <line class="st4" x1="2884" y1="4804" x2="2884" y2="5011"/>
            <line class="st4" x1="2884" y1="5048" x2="2884" y2="5096"/>
            <line class="st4" x1="2833" y1="5096" x2="2955" y2="5096"/>
            <line class="st4" x1="2731" y1="4804" x2="2731" y2="5096"/>
            <line class="st4" x1="2487" y1="5096" x2="2785" y2="5096"/>
            <line class="st4" x1="2554" y1="4804" x2="2554" y2="5016"/>
            <line class="st4" x1="2554" y1="5096" x2="2554" y2="5052"/>
            <line class="st4" x1="2381" y1="4804" x2="2381" y2="5096"/>
            <line class="st4" x1="2381" y1="5096" x2="2436" y2="5096"/>
            <line class="st4" x1="2259" y1="4804" x2="2259" y2="5096"/>
            <line class="st4" x1="2188" y1="5096" x2="2259" y2="5096"/>
            <line class="st4" x1="2135" y1="4804" x2="2135" y2="5096"/>
            <line class="st4" x1="2028" y1="4804" x2="2028" y2="5096"/>
            <line class="st4" x1="2028" y1="5096" x2="2071" y2="5096"/>
            <line class="st4" x1="1925" y1="4804" x2="1925" y2="5013"/>
            <line class="st4" x1="1925" y1="5096" x2="1925" y2="5052"/>
            <line class="st4" x1="1873" y1="5096" x2="1974" y2="5096"/>
            <line class="st4" x1="1762" y1="4804" x2="1762" y2="5096"/>
            <line class="st4" x1="1602" y1="5096" x2="1823" y2="5096"/>
            <line class="st4" x1="1526" y1="4804" x2="1526" y2="5096"/>
            <line class="st4" x1="1457" y1="5096" x2="1554" y2="5096"/>
            <line class="st4" x1="1362" y1="4804" x2="1362" y2="5096"/>
            <line class="st4" x1="1362" y1="5096" x2="1410" y2="5096"/>
            <line class="st4" x1="1274" y1="4804" x2="1274" y2="5096"/>
            <line class="st4" x1="1214" y1="5096" x2="1318" y2="5096"/>
            <line class="st4" x1="1159" y1="4804" x2="1159" y2="5096"/>
            <line class="st4" x1="1137" y1="5096" x2="1173" y2="5096"/>
            <line class="st4" x1="1011" y1="5096" x2="1094" y2="5096"/>
            <line class="st4" x1="3393" y1="5484" x2="3393" y2="5181"/>
            <line class="st4" x1="3393" y1="5181" x2="3325" y2="5181"/>
            <line class="st4" x1="3277" y1="5181" x2="2824" y2="5181"/>
            <line class="st4" x1="3060" y1="5181" x2="3060" y2="5484"/>
            <line class="st4" x1="2884" y1="5181" x2="2884" y2="5249"/>
            <line class="st4" x1="2884" y1="5286" x2="2884" y2="5484"/>
            <line class="st4" x1="2726" y1="5181" x2="2726" y2="5249"/>
            <line class="st4" x1="2726" y1="5286" x2="2726" y2="5484"/>
            <line class="st4" x1="2349" y1="5181" x2="2785" y2="5181"/>
            <line class="st4" x1="2381" y1="5181" x2="2381" y2="5355"/>
            <line class="st4" x1="2381" y1="5385" x2="2381" y2="5484"/>
            <line class="st4" x1="2305" y1="5181" x2="2135" y2="5181"/>
            <line class="st4" x1="2259" y1="5181" x2="2259" y2="5484"/>
            <line class="st4" x1="2086" y1="5181" x2="1883" y2="5181"/>
            <line class="st4" x1="2086" y1="5181" x2="2086" y2="5484"/>
            <line class="st4" x1="1925" y1="5181" x2="1925" y2="5221"/>
            <line class="st4" x1="1925" y1="5258" x2="1925" y2="5484"/>
            <line class="st4" x1="1835" y1="5181" x2="1628" y2="5181"/>
            <line class="st4" x1="1762" y1="5181" x2="1762" y2="5484"/>
            <line class="st4" x1="1584" y1="5181" x2="1386" y2="5181"/>
            <line class="st4" x1="1526" y1="5181" x2="1526" y2="5484"/>
            <line class="st4" x1="1344" y1="5181" x2="1147" y2="5181"/>
            <line class="st4" x1="1101" y1="5181" x2="1011" y2="5181"/>
            <line class="st4" x1="3393" y1="5232" x2="3450" y2="5232"/>
            <line class="st4" x1="3500" y1="5232" x2="3615" y2="5232"/>
            <line class="st4" x1="3541" y1="5232" x2="3541" y2="5484"/>
            <line class="st4" x1="3666" y1="5232" x2="3798" y2="5232"/>
            <line class="st4" x1="3744" y1="5232" x2="3744" y2="5484"/>
            <line class="st4" x1="3850" y1="5232" x2="3938" y2="5232"/>
            <line class="st4" x1="3903" y1="5232" x2="3903" y2="5484"/>
            <line class="st4" x1="3982" y1="5232" x2="4303" y2="5232"/>
            <line class="st4" x1="4133" y1="5232" x2="4133" y2="5484"/>
            <line class="st4" x1="4278" y1="5232" x2="4278" y2="5484"/>
            <line class="st4" x1="4348" y1="5232" x2="4481" y2="5232"/>
            <line class="st4" x1="4461" y1="5232" x2="4461" y2="5484"/>
            <line class="st4" x1="4523" y1="5232" x2="4717" y2="5232"/>
            <line class="st4" x1="4634" y1="5232" x2="4634" y2="5484"/>
            <line class="st4" x1="4761" y1="5232" x2="4896" y2="5232"/>
            <line class="st4" x1="4863" y1="5232" x2="4863" y2="5484"/>
            <line class="st4" x1="4775" y1="5232" x2="4775" y2="5272"/>
            <line class="st4" x1="4775" y1="5309" x2="4775" y2="5484"/>
            <line class="st4" x1="4938" y1="5232" x2="5062" y2="5232"/>
            <line class="st4" x1="4963" y1="5232" x2="4963" y2="5484"/>
            <line class="st4" x1="5106" y1="5232" x2="5247" y2="5232"/>
            <line class="st4" x1="5199" y1="5232" x2="5199" y2="5484"/>
            <line class="st4" x1="5290" y1="5232" x2="5603" y2="5232"/>
            <line class="st4" x1="5648" y1="5232" x2="5878" y2="5232"/>
            <line class="st4" x1="5668" y1="5232" x2="5668" y2="5484"/>
            <line class="st4" x1="5921" y1="5232" x2="6060" y2="5232"/>
            <line class="st4" x1="6060" y1="5232" x2="6060" y2="5484"/>
            <line class="st4" x1="6104" y1="5232" x2="6215" y2="5232"/>
            <line class="st4" x1="3903" y1="4813" x2="3903" y2="5135"/>
            <line class="st4" x1="3903" y1="5135" x2="3928" y2="5135"/>
            <line class="st4" x1="3972" y1="5135" x2="4191" y2="5135"/>
            <line class="st4" x1="4007" y1="4813" x2="4007" y2="4864"/>
            <line class="st4" x1="4007" y1="4901" x2="4007" y2="5047"/>
            <line class="st4" x1="4007" y1="5084" x2="4007" y2="5135"/>
            <line class="st4" x1="4133" y1="4813" x2="4133" y2="5135"/>
            <line class="st4" x1="4285" y1="4846" x2="4285" y2="5135"/>
            <line class="st4" x1="4285" y1="5135" x2="4239" y2="5135"/>
            <line class="st4" x1="4396" y1="4882" x2="4396" y2="5135"/>
            <line class="st4" x1="4356" y1="5135" x2="4475" y2="5135"/>
            <line class="st4" x1="4523" y1="5135" x2="4717" y2="5135"/>
            <line class="st4" x1="4766" y1="5135" x2="4911" y2="5135"/>
            <line class="st4" x1="4876" y1="4882" x2="4876" y2="5135"/>
            <line class="st4" x1="4957" y1="5135" x2="5000" y2="5135"/>
            <line class="st4" x1="4978" y1="4882" x2="4978" y2="5135"/>
            <line class="st4" x1="5043" y1="5135" x2="5124" y2="5135"/>
            <line class="st4" x1="5083" y1="4882" x2="5083" y2="5135"/>
            <line class="st4" x1="5166" y1="5135" x2="5257" y2="5135"/>
            <line class="st4" x1="5218" y1="5135" x2="5218" y2="5092"/>
            <line class="st4" x1="5218" y1="5055" x2="5218" y2="4882"/>
            <line class="st4" x1="5300" y1="5135" x2="5330" y2="5135"/>
            <line class="st4" x1="5315" y1="5135" x2="5315" y2="4882"/>
            <line class="st4" x1="5375" y1="5135" x2="5492" y2="5135"/>
            <line class="st4" x1="5446" y1="4882" x2="5446" y2="5135"/>
            <line class="st4" x1="5535" y1="5135" x2="5592" y2="5135"/>
            <line class="st4" x1="5552" y1="4882" x2="5552" y2="5135"/>
            <line class="st4" x1="5668" y1="4847" x2="5668" y2="5135"/>
            <line class="st4" x1="5668" y1="5135" x2="5718" y2="5135"/>
            <line class="st4" x1="5759" y1="5135" x2="5790" y2="5135"/>
            <line class="st4" x1="5790" y1="5075" x2="5763" y2="5075"/>
            <line class="st4" x1="5668" y1="5075" x2="5718" y2="5075"/>
            <line class="st4" x1="5790" y1="5190" x2="5790" y2="4438"/>
            <line class="st4" x1="5668" y1="4599" x2="5723" y2="4599"/>
            <line class="st4" x1="5760" y1="4599" x2="5790" y2="4599"/>
            <line class="st4" x1="5790" y1="4932" x2="6217" y2="4932"/>
            <line class="st4" x1="5790" y1="5075" x2="5964" y2="5075"/>
            <line class="st4" x1="6008" y1="5075" x2="6217" y2="5075"/>
            <line class="st4" x1="6008" y1="5075" x2="6008" y2="5185"/>
            <line class="st4" x1="5878" y1="5185" x2="6104" y2="5185"/>
            <line class="st4" x1="6104" y1="5185" x2="6104" y2="5196"/>
            <line class="st4" x1="5878" y1="5185" x2="5851" y2="5169"/>
            <line class="st4" x1="5824" y1="5151" x2="5790" y2="5130"/>
            <line class="st4" x1="3432" y1="4296" x2="3432" y2="4218"/>
            <line class="st4" x1="3432" y1="4185" x2="3432" y2="3936"/>
            <line class="st4" x1="3432" y1="3979" x2="3595" y2="3979"/>
            <line class="st4" x1="3432" y1="3902" x2="3432" y2="3717"/>
            <line class="st4" x1="3432" y1="3796" x2="3595" y2="3796"/>
            <line class="st4" x1="3432" y1="3682" x2="3432" y2="3580"/>
            <line class="st4" x1="3432" y1="3609" x2="3595" y2="3609"/>
            <line class="st4" x1="3432" y1="3544" x2="3432" y2="3203"/>
            <line class="st4" x1="3432" y1="3324" x2="3595" y2="3324"/>
            <line class="st4" x1="3364" y1="4296" x2="3364" y2="4218"/>
            <line class="st4" x1="3364" y1="4185" x2="3364" y2="3936"/>
            <line class="st4" x1="3364" y1="3979" x2="3220" y2="3979"/>
            <line class="st4" x1="3364" y1="4156" x2="3287" y2="4156"/>
            <line class="st4" x1="3254" y1="4156" x2="3220" y2="4156"/>
            <line class="st4" x1="3364" y1="3796" x2="3220" y2="3796"/>
            <line class="st4" x1="3364" y1="3902" x2="3364" y2="3717"/>
            <line class="st4" x1="3362" y1="3682" x2="3362" y2="3580"/>
            <line class="st4" x1="3364" y1="3544" x2="3364" y2="3509"/>
            <line class="st4" x1="3364" y1="3509" x2="3220" y2="3509"/>
            <line class="st4" x1="3362" y1="3609" x2="3220" y2="3609"/>
            <line class="st4" x1="3342" y1="3509" x2="3342" y2="3482"/>
            <line class="st4" x1="3342" y1="3448" x2="3342" y2="3203"/>
            <line class="st4" x1="3432" y1="3203" x2="3496" y2="3203.5"/>
            <line class="st4" x1="3496" y1="1935" x2="3528" y2="1935"/>
            <line class="st4" x1="3528" y1="1935" x2="3528" y2="1725"/>
            <line class="st4" x1="3528" y1="1725" x2="2987.1" y2="1725.2"/>
            <line class="st4" x1="3342" y1="3203" x2="3342" y2="3045"/>
            <line class="st4" x1="3311" y1="3045" x2="3268" y2="3045"/>
            <line class="st4" x1="3205" y1="3203" x2="3205" y2="2928"/>
            <line class="st4" x1="3205" y1="3045" x2="3233" y2="3045"/>
            <line class="st4" x1="3165" y1="3045" x2="2987" y2="3045"/>
            <line class="st4" x1="3156" y1="3045" x2="3156" y2="2923"/>
            <line class="st4" x1="3270" y1="2984" x2="3270" y2="2944"/>
            <line class="st4" x1="3270" y1="2984" x2="3496" y2="2984"/>
            <line class="st4" x1="3270" y1="2908" x2="3270" y2="2844"/>
            <line class="st4" x1="3270" y1="2865" x2="3496" y2="2865"/>
            <line class="st4" x1="3270" y1="2811" x2="3270" y2="2640"/>
            <line class="st4" x1="3270" y1="2697" x2="3496" y2="2697"/>
            <line class="st4" x1="3270" y1="2607" x2="3270" y2="2536"/>
            <line class="st4" x1="3270" y1="2559" x2="3496" y2="2559"/>
            <line class="st4" x1="3270" y1="2501" x2="3270" y2="2186"/>
            <line class="st4" x1="3270" y1="2258" x2="3496" y2="2258"/>
            <line class="st4" x1="3270" y1="2152" x2="3270" y2="1992"/>
            <line class="st4" x1="3270" y1="2132" x2="3496" y2="2132"/>
            <line class="st4" x1="3270" y1="1959" x2="3270" y2="1935"/>
            <line class="st4" x1="3270" y1="1935" x2="3496" y2="1935"/>
            <line class="st4" x1="3229" y1="1935" x2="2987" y2="1935"/>
            <line class="st4" x1="3222" y1="2082" x2="2987" y2="2082"/>
            <line class="st4" x1="3206" y1="2082" x2="3206" y2="2106"/>
            <line class="st4" x1="3206" y1="2139" x2="3206" y2="2305"/>
            <line class="st4" x1="3206" y1="2261" x2="2987" y2="2261"/>
            <line class="st4" x1="3206" y1="2337" x2="3206" y2="2587"/>
            <line class="st4" x1="3206" y1="2559" x2="2987" y2="2559"/>
            <line class="st4" x1="3205" y1="2623" x2="3205" y2="2795"/>
            <line class="st4" x1="3206" y1="2828" x2="3206" y2="2895"/>
            <line class="st4" x1="3205" y1="2865" x2="2987" y2="2865"/>
            <line class="st4" x1="3156" y1="2865" x2="3156" y2="2890"/>
            <line class="st4" x1="3270" y1="2082" x2="3256" y2="2082"/>
        </g>
        <g id="Sprites">
            <rect x="3595.2" y="4779.3" class="st5" width="66.8" height="9.7"/>
            <rect x="3608.5" y="4769.7" class="st5" width="53.5" height="9.7"/>
            <rect x="3621.9" y="4760" class="st5" width="40.1" height="9.7"/>
            <rect x="3635.3" y="4750.4" class="st5" width="26.7" height="9.7"/>
            <rect x="3648.7" y="4740.7" class="st5" width="13.4" height="9.7"/>
            <path class="st5" d="M3616.4,4749.3L3616.4,4749.3c-1.6-0.3-2.7-1.9-2.4-3.5l2.3-12.4c0.3-1.6,1.9-2.7,3.5-2.4l0,0
                c1.6,0.3,2.7,1.9,2.4,3.5l-2.3,12.4C3619.6,4748.5,3618,4749.6,3616.4,4749.3z"/>
            <path class="st5" d="M3632.4,4749.2L3632.4,4749.2c-0.3,1.6-1.9,2.7-3.5,2.3l-12.4-2.5c-1.6-0.3-2.7-1.9-2.3-3.5l0,0
                c0.3-1.6,1.9-2.7,3.5-2.3l12.4,2.5C3631.7,4746,3632.7,4747.6,3632.4,4749.2z"/>
            <path class="st5" d="M3630.2,4758.9L3630.2,4758.9c-1.6,0.1-3.1-1.2-3.2-2.8l-0.4-7.2c-0.1-1.6,1.2-3.1,2.8-3.2l0,0
                c1.6-0.1,3.1,1.2,3.2,2.8l0.4,7.2C3633.1,4757.4,3631.8,4758.8,3630.2,4758.9z"/>
            <path class="st5" d="M3630.7,4735.3L3630.7,4735.3c-0.2,1.6-1.7,2.8-3.4,2.6l-8.5-1.1c-1.6-0.2-2.8-1.7-2.6-3.4l0,0
                c0.2-1.6,1.7-2.8,3.4-2.6l8.5,1.1C3629.7,4732.2,3630.9,4733.7,3630.7,4735.3z"/>
            <path class="st5" d="M3636.2,4730.9L3636.2,4730.9c0.7,1.5,0.1,3.3-1.4,4l-5.7,2.7c-1.5,0.7-3.3,0.1-4-1.4l0,0
                c-0.7-1.5-0.1-3.3,1.4-4l5.7-2.7C3633.7,4728.8,3635.5,4729.4,3636.2,4730.9z"/>
            <path class="st5" d="M3607.7,4737.1L3607.7,4737.1c-0.4-1.6,0.5-3.2,2.1-3.7l8.3-2.2c1.6-0.4,3.2,0.5,3.7,2.1l0,0
                c0.4,1.6-0.5,3.2-2.1,3.7l-8.3,2.2C3609.8,4739.6,3608.2,4738.7,3607.7,4737.1z"/>
            <path class="st5" d="M3605.6,4744.3L3605.6,4744.3c-1.4-0.8-1.9-2.7-1.1-4.1l3.1-5.2c0.8-1.4,2.7-1.9,4.1-1.1l0,0
                c1.4,0.8,1.9,2.7,1.1,4.1l-3.1,5.2C3608.9,4744.7,3607,4745.2,3605.6,4744.3z"/>
            <path class="st5" d="M3617.8,4757.6L3617.8,4757.6c-1.6,0.1-3.1-1.1-3.2-2.7l-0.5-6.2c-0.1-1.6,1.1-3.1,2.7-3.2l0,0
                c1.6-0.1,3.1,1.1,3.2,2.7l0.5,6.2C3620.6,4756,3619.4,4757.5,3617.8,4757.6z"/>
            <path class="st5" d="M3611.2,4764.1L3611.2,4764.1c-1.4-0.9-1.8-2.8-0.9-4.2l4-6c0.9-1.4,2.8-1.8,4.2-0.9l0,0
                c1.4,0.9,1.8,2.8,0.9,4.2l-4,6C3614.4,4764.6,3612.5,4765,3611.2,4764.1z"/>
            <circle class="st5" cx="3624.5" cy="4722.2" r="7.2"/>
            <rect x="4307.2" y="5035.3" class="st5" width="66.8" height="9.7"/>
            <rect x="4320.5" y="5025.7" class="st5" width="53.5" height="9.7"/>
            <rect x="4333.9" y="5016" class="st5" width="40.1" height="9.7"/>
            <rect x="4347.3" y="5006.4" class="st5" width="26.7" height="9.7"/>
            <rect x="4360.7" y="4996.7" class="st5" width="13.4" height="9.7"/>
            <path class="st5" d="M4328.4,5005.3L4328.4,5005.3c-1.6-0.3-2.7-1.9-2.4-3.5l2.3-12.4c0.3-1.6,1.9-2.7,3.5-2.4l0,0
                c1.6,0.3,2.7,1.9,2.4,3.5l-2.3,12.4C4331.6,5004.5,4330,5005.6,4328.4,5005.3z"/>
            <path class="st5" d="M4344.4,5005.2L4344.4,5005.2c-0.3,1.6-1.9,2.7-3.5,2.3l-12.4-2.5c-1.6-0.3-2.7-1.9-2.3-3.5l0,0
                c0.3-1.6,1.9-2.7,3.5-2.3l12.4,2.5C4343.7,5002,4344.7,5003.6,4344.4,5005.2z"/>
            <path class="st5" d="M4342.2,5014.9L4342.2,5014.9c-1.6,0.1-3.1-1.2-3.2-2.8l-0.4-7.2c-0.1-1.6,1.2-3.1,2.8-3.2h0
                c1.6-0.1,3.1,1.2,3.2,2.8l0.4,7.2C4345.1,5013.4,4343.8,5014.8,4342.2,5014.9z"/>
            <path class="st5" d="M4342.7,4991.3L4342.7,4991.3c-0.2,1.6-1.7,2.8-3.4,2.6l-8.5-1.1c-1.6-0.2-2.8-1.7-2.6-3.4l0,0
                c0.2-1.6,1.7-2.8,3.4-2.6l8.5,1.1C4341.7,4988.2,4342.9,4989.7,4342.7,4991.3z"/>
            <path class="st5" d="M4348.2,4986.9L4348.2,4986.9c0.7,1.5,0.1,3.3-1.4,4l-5.7,2.7c-1.5,0.7-3.3,0.1-4-1.4l0,0
                c-0.7-1.5-0.1-3.3,1.4-4l5.7-2.7C4345.7,4984.8,4347.5,4985.4,4348.2,4986.9z"/>
            <path class="st5" d="M4319.7,4993.1L4319.7,4993.1c-0.4-1.6,0.5-3.2,2.1-3.7l8.3-2.2c1.6-0.4,3.2,0.5,3.7,2.1l0,0
                c0.4,1.6-0.5,3.2-2.1,3.7l-8.3,2.2C4321.8,4995.6,4320.2,4994.7,4319.7,4993.1z"/>
            <path class="st5" d="M4317.6,5000.3L4317.6,5000.3c-1.4-0.8-1.9-2.7-1.1-4.1l3.1-5.2c0.8-1.4,2.7-1.9,4.1-1.1l0,0
                c1.4,0.8,1.9,2.7,1.1,4.1l-3.1,5.2C4320.9,5000.7,4319,5001.2,4317.6,5000.3z"/>
            <path class="st5" d="M4329.8,5013.6L4329.8,5013.6c-1.6,0.1-3.1-1.1-3.2-2.7l-0.5-6.2c-0.1-1.6,1.1-3.1,2.7-3.2l0,0
                c1.6-0.1,3.1,1.1,3.2,2.7l0.5,6.2C4332.6,5012,4331.4,5013.5,4329.8,5013.6z"/>
            <path class="st5" d="M4323.2,5020.1L4323.2,5020.1c-1.4-0.9-1.8-2.8-0.9-4.2l4-6c0.9-1.4,2.8-1.8,4.2-0.9l0,0
                c1.4,0.9,1.8,2.8,0.9,4.2l-4,6C4326.4,5020.6,4324.5,5021,4323.2,5020.1z"/>
            <circle class="st5" cx="4336.5" cy="4978.2" r="7.2"/>
            <rect x="5584.2" y="5048.3" class="st5" width="66.8" height="9.7"/>
            <rect x="5597.5" y="5038.7" class="st5" width="53.5" height="9.7"/>
            <rect x="5610.9" y="5029" class="st5" width="40.1" height="9.7"/>
            <rect x="5624.3" y="5019.4" class="st5" width="26.7" height="9.7"/>
            <rect x="5637.7" y="5009.7" class="st5" width="13.4" height="9.7"/>
            <path class="st5" d="M5605.4,5018.3L5605.4,5018.3c-1.6-0.3-2.7-1.9-2.4-3.5l2.3-12.4c0.3-1.6,1.9-2.7,3.5-2.4l0,0
                c1.6,0.3,2.7,1.9,2.4,3.5l-2.3,12.4C5608.6,5017.5,5607,5018.6,5605.4,5018.3z"/>
            <path class="st5" d="M5621.4,5018.2L5621.4,5018.2c-0.3,1.6-1.9,2.7-3.5,2.3l-12.4-2.5c-1.6-0.3-2.7-1.9-2.3-3.5l0,0
                c0.3-1.6,1.9-2.7,3.5-2.3l12.4,2.5C5620.7,5015,5621.7,5016.6,5621.4,5018.2z"/>
            <path class="st5" d="M5619.2,5027.9L5619.2,5027.9c-1.6,0.1-3.1-1.2-3.2-2.8l-0.4-7.2c-0.1-1.6,1.2-3.1,2.8-3.2h0
                c1.6-0.1,3.1,1.2,3.2,2.8l0.4,7.2C5622.1,5026.4,5620.8,5027.8,5619.2,5027.9z"/>
            <path class="st5" d="M5619.7,5004.3L5619.7,5004.3c-0.2,1.6-1.7,2.8-3.4,2.6l-8.5-1.1c-1.6-0.2-2.8-1.7-2.6-3.4l0,0
                c0.2-1.6,1.7-2.8,3.4-2.6l8.5,1.1C5618.7,5001.2,5619.9,5002.7,5619.7,5004.3z"/>
            <path class="st5" d="M5625.2,4999.9L5625.2,4999.9c0.7,1.5,0.1,3.3-1.4,4l-5.7,2.7c-1.5,0.7-3.3,0.1-4-1.4l0,0
                c-0.7-1.5-0.1-3.3,1.4-4l5.7-2.7C5622.7,4997.8,5624.5,4998.4,5625.2,4999.9z"/>
            <path class="st5" d="M5596.7,5006.1L5596.7,5006.1c-0.4-1.6,0.5-3.2,2.1-3.7l8.3-2.2c1.6-0.4,3.2,0.5,3.7,2.1l0,0
                c0.4,1.6-0.5,3.2-2.1,3.7l-8.3,2.2C5598.8,5008.6,5597.2,5007.7,5596.7,5006.1z"/>
            <path class="st5" d="M5594.6,5013.3L5594.6,5013.3c-1.4-0.8-1.9-2.7-1.1-4.1l3.1-5.2c0.8-1.4,2.7-1.9,4.1-1.1l0,0
                c1.4,0.8,1.9,2.7,1.1,4.1l-3.1,5.2C5597.9,5013.7,5596,5014.2,5594.6,5013.3z"/>
            <path class="st5" d="M5606.8,5026.6L5606.8,5026.6c-1.6,0.1-3.1-1.1-3.2-2.7l-0.5-6.2c-0.1-1.6,1.1-3.1,2.7-3.2l0,0
                c1.6-0.1,3.1,1.1,3.2,2.7l0.5,6.2C5609.6,5025,5608.4,5026.5,5606.8,5026.6z"/>
            <path class="st5" d="M5600.2,5033.1L5600.2,5033.1c-1.4-0.9-1.8-2.8-0.9-4.2l4-6c0.9-1.4,2.8-1.8,4.2-0.9l0,0
                c1.4,0.9,1.8,2.8,0.9,4.2l-4,6C5603.4,5033.6,5601.5,5034,5600.2,5033.1z"/>
            <circle class="st5" cx="5613.5" cy="4991.2" r="7.2"/>
            <rect x="2291.2" y="4992.3" class="st5" width="66.8" height="9.7"/>
            <rect x="2304.5" y="4982.7" class="st5" width="53.5" height="9.7"/>
            <rect x="2317.9" y="4973" class="st5" width="40.1" height="9.7"/>
            <rect x="2331.3" y="4963.4" class="st5" width="26.7" height="9.7"/>
            <rect x="2344.7" y="4953.7" class="st5" width="13.4" height="9.7"/>
            <path class="st5" d="M2312.4,4962.3L2312.4,4962.3c-1.6-0.3-2.7-1.9-2.4-3.5l2.3-12.4c0.3-1.6,1.9-2.7,3.5-2.4l0,0
                c1.6,0.3,2.7,1.9,2.4,3.5l-2.3,12.4C2315.6,4961.5,2314,4962.6,2312.4,4962.3z"/>
            <path class="st5" d="M2328.4,4962.2L2328.4,4962.2c-0.3,1.6-1.9,2.7-3.5,2.3l-12.4-2.5c-1.6-0.3-2.7-1.9-2.3-3.5l0,0
                c0.3-1.6,1.9-2.7,3.5-2.3l12.4,2.5C2327.7,4959,2328.7,4960.6,2328.4,4962.2z"/>
            <path class="st5" d="M2326.2,4971.9L2326.2,4971.9c-1.6,0.1-3.1-1.2-3.2-2.8l-0.4-7.2c-0.1-1.6,1.2-3.1,2.8-3.2l0,0
                c1.6-0.1,3.1,1.2,3.2,2.8l0.4,7.2C2329.1,4970.4,2327.8,4971.8,2326.2,4971.9z"/>
            <path class="st5" d="M2326.7,4948.3L2326.7,4948.3c-0.2,1.6-1.7,2.8-3.4,2.6l-8.5-1.1c-1.6-0.2-2.8-1.7-2.6-3.4l0,0
                c0.2-1.6,1.7-2.8,3.4-2.6l8.5,1.1C2325.7,4945.2,2326.9,4946.7,2326.7,4948.3z"/>
            <path class="st5" d="M2332.2,4943.9L2332.2,4943.9c0.7,1.5,0.1,3.3-1.4,4l-5.7,2.7c-1.5,0.7-3.3,0.1-4-1.4l0,0
                c-0.7-1.5-0.1-3.3,1.4-4l5.7-2.7C2329.7,4941.8,2331.5,4942.4,2332.2,4943.9z"/>
            <path class="st5" d="M2303.7,4950.1L2303.7,4950.1c-0.4-1.6,0.5-3.2,2.1-3.7l8.3-2.2c1.6-0.4,3.2,0.5,3.7,2.1l0,0
                c0.4,1.6-0.5,3.2-2.1,3.7l-8.3,2.2C2305.8,4952.6,2304.2,4951.7,2303.7,4950.1z"/>
            <path class="st5" d="M2301.6,4957.3L2301.6,4957.3c-1.4-0.8-1.9-2.7-1.1-4.1l3.1-5.2c0.8-1.4,2.7-1.9,4.1-1.1l0,0
                c1.4,0.8,1.9,2.7,1.1,4.1l-3.1,5.2C2304.9,4957.7,2303,4958.2,2301.6,4957.3z"/>
            <path class="st5" d="M2313.8,4970.6L2313.8,4970.6c-1.6,0.1-3.1-1.1-3.2-2.7l-0.5-6.2c-0.1-1.6,1.1-3.1,2.7-3.2l0,0
                c1.6-0.1,3.1,1.1,3.2,2.7l0.5,6.2C2316.6,4969,2315.4,4970.5,2313.8,4970.6z"/>
            <path class="st5" d="M2307.2,4977.1L2307.2,4977.1c-1.4-0.9-1.8-2.8-0.9-4.2l4-6c0.9-1.4,2.8-1.8,4.2-0.9l0,0
                c1.4,0.9,1.8,2.8,0.9,4.2l-4,6C2310.4,4977.6,2308.5,4978,2307.2,4977.1z"/>
            <circle class="st5" cx="2320.5" cy="4935.2" r="7.2"/>
            <rect x="1060.2" y="4983.3" class="st5" width="66.8" height="9.7"/>
            <rect x="1073.5" y="4973.7" class="st5" width="53.5" height="9.7"/>
            <rect x="1086.9" y="4964" class="st5" width="40.1" height="9.7"/>
            <rect x="1100.3" y="4954.4" class="st5" width="26.7" height="9.7"/>
            <rect x="1113.7" y="4944.7" class="st5" width="13.4" height="9.7"/>
            <path class="st5" d="M1081.4,4953.3L1081.4,4953.3c-1.6-0.3-2.7-1.9-2.4-3.5l2.3-12.4c0.3-1.6,1.9-2.7,3.5-2.4l0,0
                c1.6,0.3,2.7,1.9,2.4,3.5l-2.3,12.4C1084.6,4952.5,1083,4953.6,1081.4,4953.3z"/>
            <path class="st5" d="M1097.4,4953.2L1097.4,4953.2c-0.3,1.6-1.9,2.7-3.5,2.3l-12.4-2.5c-1.6-0.3-2.7-1.9-2.3-3.5l0,0
                c0.3-1.6,1.9-2.7,3.5-2.3l12.4,2.5C1096.7,4950,1097.7,4951.6,1097.4,4953.2z"/>
            <path class="st5" d="M1095.2,4962.9L1095.2,4962.9c-1.6,0.1-3.1-1.2-3.2-2.8l-0.4-7.2c-0.1-1.6,1.2-3.1,2.8-3.2l0,0
                c1.6-0.1,3.1,1.2,3.2,2.8l0.4,7.2C1098.1,4961.4,1096.8,4962.8,1095.2,4962.9z"/>
            <path class="st5" d="M1095.7,4939.3L1095.7,4939.3c-0.2,1.6-1.7,2.8-3.4,2.6l-8.5-1.1c-1.6-0.2-2.8-1.7-2.6-3.4l0,0
                c0.2-1.6,1.7-2.8,3.4-2.6l8.5,1.1C1094.7,4936.2,1095.9,4937.7,1095.7,4939.3z"/>
            <path class="st5" d="M1101.2,4934.9L1101.2,4934.9c0.7,1.5,0.1,3.3-1.4,4l-5.7,2.7c-1.5,0.7-3.3,0.1-4-1.4l0,0
                c-0.7-1.5-0.1-3.3,1.4-4l5.7-2.7C1098.7,4932.8,1100.5,4933.4,1101.2,4934.9z"/>
            <path class="st5" d="M1072.7,4941.1L1072.7,4941.1c-0.4-1.6,0.5-3.2,2.1-3.7l8.3-2.2c1.6-0.4,3.2,0.5,3.7,2.1l0,0
                c0.4,1.6-0.5,3.2-2.1,3.7l-8.3,2.2C1074.8,4943.6,1073.2,4942.7,1072.7,4941.1z"/>
            <path class="st5" d="M1070.6,4948.3L1070.6,4948.3c-1.4-0.8-1.9-2.7-1.1-4.1l3.1-5.2c0.8-1.4,2.7-1.9,4.1-1.1l0,0
                c1.4,0.8,1.9,2.7,1.1,4.1l-3.1,5.2C1073.9,4948.7,1072,4949.2,1070.6,4948.3z"/>
            <path class="st5" d="M1082.8,4961.6L1082.8,4961.6c-1.6,0.1-3.1-1.1-3.2-2.7l-0.5-6.2c-0.1-1.6,1.1-3.1,2.7-3.2l0,0
                c1.6-0.1,3.1,1.1,3.2,2.7l0.5,6.2C1085.6,4960,1084.4,4961.5,1082.8,4961.6z"/>
            <path class="st5" d="M1076.2,4968.1L1076.2,4968.1c-1.4-0.9-1.8-2.8-0.9-4.2l4-6c0.9-1.4,2.8-1.8,4.2-0.9l0,0
                c1.4,0.9,1.8,2.8,0.9,4.2l-4,6C1079.4,4968.6,1077.5,4969,1076.2,4968.1z"/>
            <circle class="st5" cx="1089.5" cy="4926.2" r="7.2"/>
            <circle class="st6" cx="1217.7" cy="4930.4" r="16.4"/>
            <polygon class="st6" points="1245,4948 1217.1,4996.5 1189.1,4948 			"/>
            <circle class="st6" cx="5498.7" cy="4994.4" r="16.4"/>
            <polygon class="st6" points="5526,5012 5498.1,5060.5 5470.1,5012 			"/>
            <circle class="st6" cx="5376.7" cy="4994.4" r="16.4"/>
            <polygon class="st6" points="5404,5012 5376.1,5060.5 5348.1,5012 			"/>
            <rect x="3330.2" y="4471.3" class="st5" width="66.8" height="9.7"/>
            <rect x="3343.5" y="4461.7" class="st5" width="53.5" height="9.7"/>
            <rect x="3356.9" y="4452" class="st5" width="40.1" height="9.7"/>
            <rect x="3370.3" y="4442.4" class="st5" width="26.7" height="9.7"/>
            <rect x="3383.7" y="4432.7" class="st5" width="13.4" height="9.7"/>
            <path class="st5" d="M3351.4,4441.3L3351.4,4441.3c-1.6-0.3-2.7-1.9-2.4-3.5l2.3-12.4c0.3-1.6,1.9-2.7,3.5-2.4l0,0
                c1.6,0.3,2.7,1.9,2.4,3.5l-2.3,12.4C3354.6,4440.5,3353,4441.6,3351.4,4441.3z"/>
            <path class="st5" d="M3367.4,4441.2L3367.4,4441.2c-0.3,1.6-1.9,2.7-3.5,2.3l-12.4-2.5c-1.6-0.3-2.7-1.9-2.3-3.5l0,0
                c0.3-1.6,1.9-2.7,3.5-2.3l12.4,2.5C3366.7,4438,3367.7,4439.6,3367.4,4441.2z"/>
            <path class="st5" d="M3365.2,4450.9L3365.2,4450.9c-1.6,0.1-3.1-1.2-3.2-2.8l-0.4-7.2c-0.1-1.6,1.2-3.1,2.8-3.2l0,0
                c1.6-0.1,3.1,1.2,3.2,2.8l0.4,7.2C3368.1,4449.4,3366.8,4450.8,3365.2,4450.9z"/>
            <path class="st5" d="M3365.7,4427.3L3365.7,4427.3c-0.2,1.6-1.7,2.8-3.4,2.6l-8.5-1.1c-1.6-0.2-2.8-1.7-2.6-3.4l0,0
                c0.2-1.6,1.7-2.8,3.4-2.6l8.5,1.1C3364.7,4424.2,3365.9,4425.7,3365.7,4427.3z"/>
            <path class="st5" d="M3371.2,4422.9L3371.2,4422.9c0.7,1.5,0.1,3.3-1.4,4l-5.7,2.7c-1.5,0.7-3.3,0.1-4-1.4l0,0
                c-0.7-1.5-0.1-3.3,1.4-4l5.7-2.7C3368.7,4420.8,3370.5,4421.4,3371.2,4422.9z"/>
            <path class="st5" d="M3342.7,4429.1L3342.7,4429.1c-0.4-1.6,0.5-3.2,2.1-3.7l8.3-2.2c1.6-0.4,3.2,0.5,3.7,2.1l0,0
                c0.4,1.6-0.5,3.2-2.1,3.7l-8.3,2.2C3344.8,4431.6,3343.2,4430.7,3342.7,4429.1z"/>
            <path class="st5" d="M3340.6,4436.3L3340.6,4436.3c-1.4-0.8-1.9-2.7-1.1-4.1l3.1-5.2c0.8-1.4,2.7-1.9,4.1-1.1l0,0
                c1.4,0.8,1.9,2.7,1.1,4.1l-3.1,5.2C3343.9,4436.7,3342,4437.2,3340.6,4436.3z"/>
            <path class="st5" d="M3352.8,4449.6L3352.8,4449.6c-1.6,0.1-3.1-1.1-3.2-2.7l-0.5-6.2c-0.1-1.6,1.1-3.1,2.7-3.2l0,0
                c1.6-0.1,3.1,1.1,3.2,2.7l0.5,6.2C3355.6,4448,3354.4,4449.5,3352.8,4449.6z"/>
            <path class="st5" d="M3346.2,4456.1L3346.2,4456.1c-1.4-0.9-1.8-2.8-0.9-4.2l4-6c0.9-1.4,2.8-1.8,4.2-0.9l0,0
                c1.4,0.9,1.8,2.8,0.9,4.2l-4,6C3349.4,4456.6,3347.5,4457,3346.2,4456.1z"/>
            <circle class="st5" cx="3359.5" cy="4414.2" r="7.2"/>
            <circle class="st6" cx="3547.3" cy="4318.6" r="11.6"/>
            <polygon class="st6" points="3566.6,4331 3546.8,4365.2 3527.1,4331 			"/>
        </g>
    </g>
    </svg>